<?xml version="1.0"?>
<svg xmlns="http://www.w3.org/2000/svg" viewBox="0 0 512 512" width="512" height="512" style="fill: #075949;"><g id="outline"><path d="M488,240v-8a40,40,0,0,0-80,0v1.106a24.033,24.033,0,0,0-29.841-7.556l-3.065,1.474a40.3,40.3,0,0,0-8.188-3.961,39.737,39.737,0,0,0-30.567,1.705l-57.673,27.746a40.065,40.065,0,0,0-21.407,45.972L235.9,296.351,176,228.958V208a8,8,0,0,0-8-8H48a8,8,0,0,0,0,16H96.83a38.679,38.679,0,0,0,28.513,29.582l5.716,1.429,57.116,85.674a37.838,37.838,0,0,0,17.5,14.2l8.656,3.463-.857.857-99.68-23a7.972,7.972,0,0,0-6.723,1.493c-.01.008-.018.011-.028.019l-85,67a8,8,0,1,0,9.9,12.566l38.725-30.525a36.925,36.925,0,0,0,42.652,5.759l92.648,21.38a37.975,37.975,0,0,0,20.561-.977L313.312,376A191.892,191.892,0,0,0,368,367.675V384a8,8,0,0,0,3.35,6.51l54.807,39.148,15.187,22.78a8,8,0,0,0,8.6,3.323l32-8a8,8,0,0,0,5.215-11.339L480.944,424l6.211-12.422a8,8,0,0,0,0-7.156l-8-16a8,8,0,0,0-10.733-3.577L457,390.556l-33-26.4V344.06l18.929-8.6A23.991,23.991,0,0,0,472,312h0a40.072,40.072,0,0,0,15.191-24H488a8,8,0,0,0,8-8V248A8,8,0,0,0,488,240Zm-22.111,32-14.311-7.155a8,8,0,0,0-7.156,0L430.111,272H416V256h64v16Zm-43.381,51h4.172q.478.923,1.032,1.8l-4.219,1.918A27.727,27.727,0,0,0,422.508,323ZM412,307a12.013,12.013,0,0,1-12-12V280a8,8,0,0,0,8,8h.809a40.066,40.066,0,0,0,9.7,19Zm12-75a24,24,0,0,1,48,0v8H424Zm-32.791,7.627a7.99,7.99,0,0,1,1.854,14.155,40.179,40.179,0,0,0-3.337-10.31,40.825,40.825,0,0,0-2.354-4.209A7.962,7.962,0,0,1,391.209,239.627Zm-47.934-.441a24,24,0,1,1,20.81,43.255l-7.209,3.468-20.81-43.255Zm-21.627,10.405,20.81,43.254-28.837,13.874-20.809-43.255Zm-42.66,22.045,19.621,40.784a24,24,0,0,1-19.621-40.784Zm-67.365,60.4a21.9,21.9,0,0,1-10.135-8.223l-58.832-88.248a8,8,0,0,0-4.716-3.323l-8.716-2.179A22.707,22.707,0,0,1,113.446,216H160v16a8,8,0,0,0,2.021,5.315l64,72a8,8,0,0,0,5.183,2.645l21.923,2.193a67.924,67.924,0,0,0-12.357,9.764l-14.125,14.125ZM312,360a8,8,0,0,0-2.53.411l-87.992,29.33a21.994,21.994,0,0,1-11.9.566l-95.775-22.1a7.991,7.991,0,0,0-6.237,1.139,20.865,20.865,0,0,1-24.063-.692l30.44-23.994L214.2,367.8a8,8,0,0,0,7.456-2.138l30.426-30.427A52.1,52.1,0,0,1,274.274,322.1a40.261,40.261,0,0,0,21.8,6.453,39.766,39.766,0,0,0,17.278-3.952l57.672-27.746A39.883,39.883,0,0,0,384,286.919V295a27.849,27.849,0,0,0,2.164,10.788A28.045,28.045,0,0,0,368,332v18.88A176.047,176.047,0,0,1,312,360Zm139,46.247a8,8,0,0,0,8.576.908l8.844-4.422L471.056,408l-6.211,12.422a8,8,0,0,0,0,7.156l3.54,7.08-16.856,4.214-12.873-19.31a8,8,0,0,0-2.006-2.072L384,379.883V332a12,12,0,0,1,24,0v36a8,8,0,0,0,3,6.247ZM448,320a8,8,0,1,1,8-8A8.009,8.009,0,0,1,448,320Zm17.878-23.99a23.956,23.956,0,0,0-35.756,0,24.059,24.059,0,0,1-4.744-8.01H432a7.994,7.994,0,0,0,3.578-.845L448,280.944l12.422,6.211A7.994,7.994,0,0,0,464,288h6.622A24.059,24.059,0,0,1,465.878,296.01Z"/><path d="M392,192a24,24,0,1,0-24-24A24.027,24.027,0,0,0,392,192Zm0-32a8,8,0,1,1-8,8A8.009,8.009,0,0,1,392,160Z"/><path d="M440,136a24,24,0,1,0-24-24A24.027,24.027,0,0,0,440,136Zm0-32a8,8,0,1,1-8,8A8.009,8.009,0,0,1,440,104Z"/><path d="M344,104a24,24,0,1,0-24-24A24.027,24.027,0,0,0,344,104Zm0-32a8,8,0,1,1-8,8A8.009,8.009,0,0,1,344,72Z"/></g></svg>
